<svg width="16" height="16" fill="none" xmlns="http://www.w3.org/2000/svg"><g clip-path="url(#clip0)" fill="#96C12A"><path d="M7.556 8a3.87 3.87 0 002.828-1.172A3.871 3.871 0 0011.555 4a3.87 3.87 0 00-1.171-2.828A3.871 3.871 0 007.556 0a3.87 3.87 0 00-2.829 1.172A3.87 3.87 0 003.556 4c0 1.099.394 2.05 1.171 2.828A3.872 3.872 0 007.556 8zm-2.14-6.14a2.891 2.891 0 012.14-.887c.843 0 1.543.29 2.14.887.596.597.886 1.297.886 2.14 0 .843-.29 1.543-.886 2.14a2.891 2.891 0 01-2.14.887 2.89 2.89 0 01-2.14-.887A2.891 2.891 0 014.529 4c0-.843.29-1.543.887-2.14z"/><path d="M14.19 12.424a8.926 8.926 0 00-.13-.977 7.508 7.508 0 00-.248-.983 4.783 4.783 0 00-.417-.917 3.473 3.473 0 00-.63-.795 2.79 2.79 0 00-.904-.55A3.215 3.215 0 0010.707 8c-.163 0-.32.065-.626.257l-.651.407a3.83 3.83 0 01-.844.36 3.449 3.449 0 01-1.03.161c-.343 0-.69-.054-1.032-.161-.35-.11-.634-.23-.843-.36-.242-.15-.462-.287-.652-.407C4.724 8.065 4.566 8 4.403 8c-.415 0-.803.068-1.154.202-.351.135-.655.32-.904.55-.237.22-.45.488-.63.795a4.79 4.79 0 00-.416.917 7.5 7.5 0 00-.249.983 8.87 8.87 0 00-.13.978c-.02.295-.031.603-.031.914 0 .807.265 1.461.788 1.944.517.476 1.2.717 2.031.717h7.695c.831 0 1.514-.241 2.031-.717.523-.482.788-1.136.788-1.944 0-.312-.01-.62-.032-.915zm-1.402 2.202c-.341.314-.794.467-1.385.467H3.708c-.591 0-1.044-.153-1.385-.467-.335-.309-.498-.73-.498-1.287 0-.29.01-.577.03-.851a8 8 0 01.117-.881 6.73 6.73 0 01.218-.867 3.9 3.9 0 01.34-.745c.135-.23.291-.428.463-.587.16-.15.363-.271.601-.362.22-.085.469-.131.738-.138.032.017.09.049.185.109.193.121.415.26.66.411.277.171.633.325 1.059.458a4.39 4.39 0 001.32.206c.44 0 .884-.07 1.319-.205a4.721 4.721 0 001.059-.459l.659-.411c.095-.06.153-.092.186-.11.269.008.517.054.738.139.238.09.44.213.6.362.172.159.328.356.463.587.142.241.256.492.34.745a6.6 6.6 0 01.219.867c.058.315.097.611.117.88.02.275.03.56.03.852 0 .557-.163.978-.498 1.287z"/></g><defs><clipPath id="clip0"><path fill="#fff" d="M0 0h16v16H0z"/></clipPath></defs></svg>