<svg width="16" height="16" fill="none" xmlns="http://www.w3.org/2000/svg"><path d="M15.604 3.255A.4.4 0 0016 2.863V.396A.395.395 0 0015.604 0h-2.467a.394.394 0 00-.392.396v.859h-9.49V.396A.4.4 0 002.863 0H.396A.4.4 0 000 .396v2.467c0 .215.176.392.396.392h.859v9.49H.396a.4.4 0 00-.396.392v2.467A.4.4 0 00.396 16h2.467a.394.394 0 00.392-.396v-.859h9.49v.859a.4.4 0 00.392.396h2.467a.4.4 0 00.396-.396v-2.467a.394.394 0 00-.396-.392h-.859v-9.49h.859zM.784 2.47V.784h1.687v1.687H.784zm1.687 12.745H.784v-1.687h1.687v1.687zm10.274-2.079v.824h-9.49v-.824a.393.393 0 00-.392-.392h-.824v-9.49h.824a.393.393 0 00.392-.392v-.824h9.49v.824c0 .215.177.392.392.392h.824v9.49h-.824a.393.393 0 00-.392.392zm2.47.392v1.687H13.53v-1.687h1.687zM13.53 2.471V.784h1.687v1.687H13.53z" fill="#96C12A"/></svg>