<svg width="16" height="16" fill="none" xmlns="http://www.w3.org/2000/svg"><g clip-path="url(#clip0)"><path d="M8.097 13c2.314 0 1.489-1.465 1.668-1.887-.003-.314-.006-.617.005-.801.147.041.493.217 1.207.911C12.081 12.337 12.363 13 13.254 13h1.64c.52 0 .791-.215.927-.396.13-.175.258-.481.118-.959-.366-1.149-2.5-3.134-2.633-3.343.02-.039.052-.09.069-.117h-.002c.422-.556 2.03-2.966 2.266-3.93l.002-.005c.128-.44.01-.725-.111-.887-.183-.241-.473-.363-.866-.363h-1.64c-.55 0-.967.277-1.177.781-.353.897-1.344 2.741-2.086 3.394a42.74 42.74 0 01.004-2.156C9.79 3.996 9.867 3 8.805 3H6.226c-.665 0-1.302.727-.613 1.59.603.755.217 1.177.347 3.274-.507-.543-1.408-2.01-2.045-3.886-.179-.507-.45-.977-1.212-.977h-1.64C.397 3 0 3.363 0 3.97 0 5.335 3.02 13 8.097 13zM2.703 4c.145 0 .16 0 .267.305.653 1.922 2.117 4.766 3.186 4.766.803 0 .803-.823.803-1.133V5.47c-.044-.817-.342-1.223-.537-1.47l2.339.003c.001.011-.014 2.73.006 3.388 0 .936.743 1.472 1.902.298 1.224-1.38 2.07-3.444 2.104-3.528.05-.12.093-.161.25-.161h1.648l-.002.006c-.15.7-1.63 2.93-2.126 3.623a.566.566 0 00-.022.034c-.218.356-.396.749.03 1.302.039.047.14.156.286.308.456.471 2.02 2.08 2.159 2.72-.092.015-.192.004-1.742.008-.33 0-.588-.494-1.573-1.487-.885-.861-1.46-1.213-1.983-1.213-1.016 0-.942.824-.933 1.822.004 1.081-.003.739.004.807-.059.023-.229.07-.672.07-4.23 0-6.985-6.714-7.091-7.997C1.043 3.999 1.547 4 2.703 4z" fill="#96C12A"/></g><defs><clipPath id="clip0"><path fill="#fff" d="M0 0h16v16H0z"/></clipPath></defs></svg>