<svg width="16" height="16" fill="none" xmlns="http://www.w3.org/2000/svg"><g clip-path="url(#clip0)"><path d="M15.18 2.667H.82c-.45 0-.82.369-.82.82v9.026c0 .451.37.82.82.82h14.36c.45 0 .82-.369.82-.82V3.487c0-.451-.37-.82-.82-.82zm-.308.615l-6.4 4.8A.8.8 0 018 8.224a.8.8 0 01-.472-.142l-6.4-4.8h13.744zM11.453 8.4l3.487 4.308.012.011H1.048l.012-.011L4.547 8.4a.308.308 0 00-.478-.387L.615 12.277v-8.61L7.16 8.574c.246.184.545.264.84.265.296 0 .596-.081.842-.265l6.543-4.907v8.61l-3.453-4.265a.308.308 0 00-.478.387z" fill="#96C12A"/></g><defs><clipPath id="clip0"><path fill="#fff" d="M0 0h16v16H0z"/></clipPath></defs></svg>