<svg width="17" height="17" fill="none" xmlns="http://www.w3.org/2000/svg"><g clip-path="url(#clip0)"><path d="M15.308 3.855h-3.663V2.38c0-.703-.572-1.275-1.275-1.275H6.63c-.703 0-1.275.572-1.275 1.275v1.476H1.692A1.694 1.694 0 000 5.547v8.656c0 .933.76 1.693 1.692 1.693h13.616c.933 0 1.692-.76 1.692-1.693V5.547c0-.933-.76-1.692-1.692-1.692zM6.435 2.38c0-.107.087-.195.195-.195h3.74c.107 0 .195.088.195.195v1.476h-4.13V2.38zM1.08 5.547c0-.337.274-.612.612-.612h13.616c.338 0 .612.275.612.612v.8c0 .749-.502 1.418-1.222 1.628L9.053 9.619a1.973 1.973 0 01-1.106 0L2.302 7.975A1.705 1.705 0 011.08 6.346v-.799zm14.228 9.269H1.692a.613.613 0 01-.612-.613V8.544c.272.21.582.369.92.467 6.236 1.816 5.916 1.766 6.5 1.766.592 0 .256.052 6.5-1.766a2.74 2.74 0 00.92-.467v5.66a.613.613 0 01-.612.612z" fill="#96C12A"/></g><defs><clipPath id="clip0"><path fill="#fff" d="M0 0h17v17H0z"/></clipPath></defs></svg>