<svg width="23" height="23" fill="none" xmlns="http://www.w3.org/2000/svg"><path d="M11 0C6.589 0 3 3.646 3 8.127c0 1.475.651 3.062.679 3.129.21.507.625 1.295.924 1.757l5.486 8.443c.224.346.556.544.911.544s.687-.198.912-.544l5.485-8.443c.3-.462.715-1.25.925-1.757.027-.067.678-1.653.678-3.13C19 3.647 15.411 0 11 0zm6.454 10.885a12.068 12.068 0 01-.843 1.601l-5.485 8.444c-.109.166-.143.166-.251 0l-5.486-8.444a12.081 12.081 0 01-.843-1.602c-.008-.02-.605-1.48-.605-2.757 0-3.954 3.167-7.17 7.059-7.17 3.892 0 7.059 3.216 7.059 7.17 0 1.28-.599 2.743-.605 2.758z" fill="#96C12A"/><path d="M11 4C8.794 4 7 5.795 7 8s1.794 4 4 4 4-1.795 4-4-1.794-4-4-4zm0 7.111A3.115 3.115 0 017.889 8 3.115 3.115 0 0111 4.889 3.115 3.115 0 0114.111 8 3.115 3.115 0 0111 11.111z" fill="#96C12A"/></svg>