<svg width="17" height="17" fill="none" xmlns="http://www.w3.org/2000/svg"><g clip-path="url(#clip0)" fill="#96C12A"><path d="M14.52 17h-8.5c-.975 0-1.77-.794-1.77-1.77V4.603c0-.977.795-1.77 1.77-1.77h8.5c.977 0 1.772.793 1.772 1.77V15.23c0 .977-.795 1.77-1.771 1.77zM6.02 3.542c-.585 0-1.062.476-1.062 1.062V15.23c0 .586.477 1.063 1.063 1.063h8.5c.586 0 1.062-.477 1.062-1.063V4.604c0-.586-.476-1.062-1.062-1.062h-8.5z"/><path d="M3.187 14.875H2.48c-.976 0-1.77-.794-1.77-1.77V1.77A1.769 1.769 0 012.478 0h8.5c.976 0 1.771.794 1.771 1.77a.354.354 0 01-.708 0c0-.585-.477-1.062-1.063-1.062h-8.5c-.586 0-1.062.477-1.062 1.063v11.333c0 .586.476 1.063 1.062 1.063h.708a.354.354 0 010 .708zm9.917-2.833H7.437a.354.354 0 010-.709h5.667a.354.354 0 010 .709zm0 2.833H7.437a.354.354 0 010-.708h5.667a.354.354 0 010 .708z"/><path d="M13.104 9.208H7.437a.354.354 0 010-.708h5.667a.354.354 0 010 .708zm0-2.833H7.437a.354.354 0 010-.708h5.667a.354.354 0 010 .708z"/></g><defs><clipPath id="clip0"><path fill="#fff" d="M0 0h17v17H0z"/></clipPath></defs></svg>