<svg width="16" height="16" fill="none" xmlns="http://www.w3.org/2000/svg"><g clip-path="url(#clip0)"><path d="M11.5 16a4.459 4.459 0 01-1.53-.273 16.308 16.308 0 01-5.922-3.775A16.308 16.308 0 01.274 6.03a4.426 4.426 0 01-.226-2.175A4.53 4.53 0 012.38.533 4.455 4.455 0 014.513 0a.5.5 0 01.49.395l.784 3.663a.5.5 0 01-.135.458L4.31 5.856a13.161 13.161 0 005.833 5.834l1.34-1.341a.5.5 0 01.459-.136l3.662.785a.5.5 0 01.395.489c0 .758-.179 1.476-.533 2.133a4.547 4.547 0 01-3.322 2.333A4.436 4.436 0 0111.5 16zM4.114 1.022c-1 .11-1.887.634-2.477 1.475a3.445 3.445 0 00-.423 3.192 15.165 15.165 0 009.098 9.098 3.445 3.445 0 003.191-.424 3.463 3.463 0 001.476-2.477l-2.98-.638-1.4 1.4a.5.5 0 01-.566.1 14.158 14.158 0 01-6.78-6.78.5.5 0 01.099-.566l1.4-1.4-.638-2.98z" fill="#96C12A"/></g><defs><clipPath id="clip0"><path fill="#fff" d="M0 0h16v16H0z"/></clipPath></defs></svg>