<svg width="32" height="32" fill="none" xmlns="http://www.w3.org/2000/svg"><path d="M15.5 12a.5.5 0 001 0v-1a.5.5 0 00-1 0v1zm.5 1a.5.5 0 00-.5.5v1a.5.5 0 001 0v-1a.5.5 0 00-.5-.5zm2.986 7.5l-.899-.439a.501.501 0 00-.596.781c.044.05.098.09.158.118l.898.438a.5.5 0 10.44-.898zm2.247 1.097l-.899-.44a.501.501 0 00-.692.613.5.5 0 00.254.287l.898.438a.5.5 0 00.439-.898zm2.247 1.097l-.9-.439a.5.5 0 10-.438.899l.899.439a.5.5 0 00.438-.9z" fill="#fff"/><path d="M31.224 26.553L26.5 24.19V11.5a.5.5 0 00-.276-.447L16.5 6.19V3a.5.5 0 00-1 0v3.191l-9.724 4.862a.5.5 0 00-.276.447v12.712l-4.722 2.34a.5.5 0 10.444.896l4.8-2.379 9.754 4.879a.504.504 0 00.448 0l9.779-4.89 4.773 2.389a.493.493 0 00.534-.055.5.5 0 00-.086-.839zM15.5 28.691l-8.356-4.178.533-.264a.5.5 0 10-.445-.896l-.732.363V12.31l9 4.5v11.88zm.5-12.75L7.118 11.5 15.5 7.309V9.5a.5.5 0 001 0V7.309l8.382 4.191L16 15.941zm9.5 7.747l-.668-.334a.5.5 0 10-.448.894l.501.25-8.385 4.193V16.81l9-4.5v11.38z" fill="#fff"/><path d="M13.296 21.45a.507.507 0 00.219-.052l.898-.438a.502.502 0 00-.054-.926.502.502 0 00-.385.027l-.898.439a.5.5 0 00.22.95zm-2.246 1.096a.5.5 0 00.218-.05l.899-.44a.5.5 0 00-.44-.898l-.898.439a.5.5 0 00.22.95zm-2.247 1.097a.5.5 0 00.219-.05l.898-.44a.5.5 0 00-.439-.898l-.898.439a.5.5 0 00.22.949z" fill="#fff"/></svg>