<svg width="27" height="27" fill="none" xmlns="http://www.w3.org/2000/svg"><g clip-path="url(#clip0)" fill="#fff"><path d="M25.312 13.5H1.687A1.69 1.69 0 010 11.813v-1.125C0 9.758.757 9 1.687 9h23.625c.93 0 1.688.757 1.688 1.688v1.125a1.69 1.69 0 01-1.688 1.687zM1.687 10.125a.563.563 0 00-.562.563v1.125c0 .31.253.562.562.562h23.625c.31 0 .563-.252.563-.562v-1.125a.563.563 0 00-.563-.563H1.687zM26.437 27H.562a.563.563 0 010-1.125h25.875a.563.563 0 010 1.125z"/><path d="M2.812 27a.563.563 0 01-.562-.562v-13.5a.563.563 0 011.125 0v13.5c0 .31-.252.562-.563.562zm21.375 0a.563.563 0 01-.562-.562v-13.5a.563.563 0 011.125 0v13.5c0 .31-.252.562-.563.562zm-4.5 0a.563.563 0 01-.562-.562V22.5a5.631 5.631 0 00-5.625-5.625A5.631 5.631 0 007.875 22.5v3.938a.563.563 0 01-1.125 0V22.5a6.757 6.757 0 016.75-6.75 6.757 6.757 0 016.75 6.75v3.938c0 .31-.252.562-.563.562zM8.719 6.75a.562.562 0 01-.34-1.01l.232-.177a.998.998 0 00.386-.89.974.974 0 00-.534-.796A2.106 2.106 0 017.321 2.18 2.116 2.116 0 018.144.295l.233-.179a.562.562 0 11.683.894l-.232.178a.997.997 0 00-.386.89c.031.35.226.64.532.796a2.11 2.11 0 011.143 1.697 2.116 2.116 0 01-.822 1.885l-.234.178a.565.565 0 01-.342.116zm5.062 0a.562.562 0 01-.34-1.01l.232-.177a.998.998 0 00.386-.89.974.974 0 00-.532-.796 2.107 2.107 0 01-1.143-1.697 2.116 2.116 0 01.822-1.885l.233-.179a.562.562 0 11.683.894l-.233.178a.998.998 0 00-.386.89c.032.35.226.64.533.796a2.11 2.11 0 011.143 1.697 2.116 2.116 0 01-.823 1.885l-.233.18a.571.571 0 01-.342.114zm4.5 0a.562.562 0 01-.34-1.01l.232-.177a.998.998 0 00.386-.89.974.974 0 00-.532-.796 2.107 2.107 0 01-1.143-1.697 2.116 2.116 0 01.822-1.885l.233-.179a.562.562 0 11.683.894l-.233.178a.998.998 0 00-.386.89c.032.35.226.64.532.796.648.33 1.076.965 1.143 1.697a2.116 2.116 0 01-.822 1.885l-.233.18a.571.571 0 01-.342.114z"/><path d="M13.5 27a2.253 2.253 0 01-2.25-2.25c0-1.027 1.466-3.69 1.76-4.213.197-.354.781-.354.98 0 .294.523 1.76 3.186 1.76 4.213 0 1.241-1.01 2.25-2.25 2.25zm0-5c-.602 1.17-1.125 2.368-1.125 2.75a1.126 1.126 0 002.25 0c0-.382-.523-1.58-1.125-2.75z"/></g><defs><clipPath id="clip0"><path fill="#fff" d="M0 0h27v27H0z"/></clipPath></defs></svg>