<svg width="31" height="31" fill="none" xmlns="http://www.w3.org/2000/svg"><g clip-path="url(#clip0)" fill="#fff"><path d="M22.647 11.165a.563.563 0 00-.795 0l-7.477 7.477-4.103-4.102a.563.563 0 00-.795.796l4.5 4.5a.565.565 0 00.795 0l7.875-7.875a.563.563 0 000-.796z"/><path d="M26.91 5.399L15.662 2.024a.564.564 0 00-.323 0L4.088 5.399c-.237.07-.4.29-.4.538v12.375c0 4.975 7.584 9.4 11.646 10.663a.56.56 0 00.332 0c4.062-1.264 11.647-5.688 11.647-10.663V5.938a.563.563 0 00-.402-.538zm-.722 12.913c0 3.95-6.259 8.104-10.688 9.536-4.429-1.432-10.687-5.586-10.687-9.535V6.355L15.5 3.15l10.688 3.206v11.957z"/></g><defs><clipPath id="clip0"><path fill="#fff" transform="translate(2 2)" d="M0 0h27v27H0z"/></clipPath></defs></svg>