<svg width="28" height="28" fill="none" xmlns="http://www.w3.org/2000/svg"><g clip-path="url(#clip0)" fill="#fff"><path d="M24.775 19.76a.411.411 0 00-.448.09l-4.49 4.49a.411.411 0 00.29.702h4.491a.411.411 0 00.411-.41V20.14c0-.166-.1-.316-.254-.38zm-3.656 4.46l3.088-3.088v3.088h-3.088z"/><path d="M27.746 13.173a.41.41 0 00-.447.089l-1.231 1.23V6.125a.411.411 0 00-.411-.411h-3.158l1.146-1.146 1.105-1.105c.237-.237.367-.552.367-.886 0-.335-.13-.65-.367-.887L23.473.412a1.245 1.245 0 00-.886-.367c-.335 0-.65.13-.886.367l-1.105 1.105-1.335 1.336-2.86 2.86H3.642V1.647a.411.411 0 00-.41-.41A3.236 3.236 0 000 4.468v17.455c0 .03.004.06.01.088.057.757.384 1.46.93 1.993.585.57 1.357.884 2.173.884h12.559l-2.366 2.365a.41.41 0 00.291.701h13.992a.411.411 0 00.411-.41V13.553a.41.41 0 00-.254-.38zM22.282.993a.432.432 0 01.61 0l1.277 1.278a.432.432 0 010 .61l-.814.814-1.887-1.887.814-.814zM20.886 2.39l1.887 1.887-.754.754-1.887-1.887.754-.754zm6.292 15.782h-.758a.411.411 0 100 .822h.758v1.238h-.758a.411.411 0 100 .822h.758v1.238h-.758a.41.41 0 100 .822h.758v1.239h-.758a.411.411 0 100 .822h.758v1.96H14.59l4.151-4.151a.411.411 0 10-.58-.582l-1.666 1.666H3.114a2.278 2.278 0 01-2.29-2.217 2.293 2.293 0 01.035-.342l.002-.013a2.369 2.369 0 01.097-.37l.016-.042.031-.08.01-.023a2.42 2.42 0 01.044-.097c0-.001 0-.003.002-.004a2.42 2.42 0 011.681-1.315l.006-.002a1.85 1.85 0 01.103-.018l.018-.003c.03-.005.062-.008.094-.012l.027-.003.092-.007.029-.002c.04-.002.08-.003.121-.003a.411.411 0 00.411-.411v-2.98a.41.41 0 00-.822 0v2.595a3.21 3.21 0 00-2 1.054V4.47c0-1.19.866-2.18 2-2.376V14.48a.411.411 0 10.822 0V6.535h11.935l-2.272 2.272a.411.411 0 00.582.581l2.973-2.974 2.69-2.69 1.887 1.887-.221.222-8.288 8.287-1.887-1.887 1.634-1.633a.411.411 0 00-.581-.582l-1.924 1.925a.417.417 0 00-.03.032l-.008.011a.438.438 0 00-.017.024l-.008.014a.406.406 0 00-.013.024l-.008.015a.396.396 0 00-.01.025c0 .003-.002.006-.003.008l-.801 2.269-.546 1.546a.415.415 0 00-.016.063H7.344a.411.411 0 000 .822h11.381a.41.41 0 000-.822H10.56l2.506-.885.006-.003a.424.424 0 00.029-.012l.011-.005.03-.016.008-.006a.403.403 0 00.03-.02l.007-.005a.44.44 0 00.033-.03l8.457-8.457h3.569v8.78l-5.88 5.879a.411.411 0 10.582.58l7.23-7.23v3.627zm-15-3.64L11 14.946l-.784-.784.416-1.177 1.546 1.546z"/></g><defs><clipPath id="clip0"><path fill="#fff" d="M0 0h28v28H0z"/></clipPath></defs></svg>