<svg width="26" height="26" fill="none" xmlns="http://www.w3.org/2000/svg"><path d="M10.453 3.728C8.18 1.458 3.737 1.194.59 1.194a.59.59 0 00-.59.59c0 3.147.262 7.591 2.534 9.863.958.959 2.428 1.387 3.885 1.387 1.583 0 3.152-.506 4.034-1.388 1.692-1.692 2.002-5.917 0-7.918zm-.835 7.084c-1.263 1.262-4.77 1.478-6.249 0C1.536 8.98 1.22 5.254 1.184 2.378c2.876.034 6.6.352 8.434 2.185 1.478 1.479 1.262 4.987 0 6.25zM25.41 3.53c-3.146 0-7.591.261-9.863 2.533-2.002 2-1.692 6.226 0 7.918.882.88 2.45 1.387 4.033 1.387 1.457 0 2.926-.427 3.887-1.386C25.736 11.711 26 7.266 26 4.12a.59.59 0 00-.59-.59zm-2.78 9.616c-1.479 1.478-4.987 1.262-6.25 0-1.261-1.262-1.477-4.77 0-6.249 1.834-1.833 5.559-2.15 8.435-2.185-.035 2.877-.352 6.602-2.186 8.434z" fill="#fff"/><path d="M21.147 8.639c-.14-.297-.539-.398-.833-.261-4.527 2.129-6.751 5.84-7.762 9.656-1.25-8.113-4.866-10.586-6.4-11.636-.191-.131-.34-.227-.423-.308a.59.59 0 00-.834.835c.117.115.318.26.591.447 1.729 1.182 6.32 4.323 6.32 16.843a.59.59 0 001.18.002c0-5.06 1.36-11.728 7.831-14.77l.096-.046c.294-.139.373-.467.234-.762z" fill="#fff"/></svg>