<svg width="38" height="38" fill="none" xmlns="http://www.w3.org/2000/svg"><path d="M19.764 36a10.17 10.17 0 01-3.631-.656c-4.172-1.588-6.955-4.088-8.27-7.432-2.16-5.489.404-11.209.514-11.45a.48.48 0 01.19-.212.454.454 0 01.531.047.488.488 0 01.152.244 6.403 6.403 0 001.918 2.835c1.07-5.58 5.759-8.957 5.967-9.105 3.024-2.514.554-7.51.529-7.56a.502.502 0 01.118-.6.457.457 0 01.59-.003c8.33 7.02 7.851 14.089 7.18 16.994a4.7 4.7 0 001.409-1.945 4.879 4.879 0 00.287-2.415.501.501 0 01.06-.313.474.474 0 01.235-.207.452.452 0 01.308-.01c.101.032.188.1.248.19a22.379 22.379 0 012.186 4.675c.724 2.15.902 4.459.517 6.702a13.51 13.51 0 01-2.712 6.106l-.1.126a10.68 10.68 0 01-3.682 2.954A10.29 10.29 0 0119.764 36zm-3.31-1.568c1.061.4 2.181.601 3.31.597a9.388 9.388 0 004.144-.944 9.744 9.744 0 003.359-2.692l.093-.12a12.527 12.527 0 002.517-5.66c.357-2.08.193-4.22-.477-6.215a22.47 22.47 0 00-1.257-2.986c-.515 2.922-3.208 4.281-3.24 4.297a.453.453 0 01-.531-.095.503.503 0 01-.092-.551c.147-.33 3.367-7.82-5.109-15.952.54 1.946.864 4.99-1.483 6.94-.078.057-5.046 3.646-5.725 9.277a.495.495 0 01-.088.228.453.453 0 01-.639.113 8.892 8.892 0 01-2.419-2.71c-.614 1.866-1.562 5.85-.087 9.59 1.214 3.077 3.813 5.391 7.724 6.88v.003z" fill="#fff"/><path d="M17.693 34.999a.506.506 0 01-.318-.112c-6.297-5.108-1.86-11.641-1.815-11.706a.492.492 0 01.237-.181.513.513 0 01.556.145.466.466 0 01.11.27 3.12 3.12 0 00.772 1.994 9.338 9.338 0 01.786-5.273 9.77 9.77 0 013.57-4.071.51.51 0 01.588.066.46.46 0 01.1.563 3.2 3.2 0 00-.399 1.61c.026.652.24 1.284.62 1.824l.198.29a29.976 29.976 0 002.125 2.693 8.318 8.318 0 011.403 2.299c2.477 4.914-1.779 8.787-1.82 8.826a.506.506 0 01-.692-.03.466.466 0 01.02-.667c.154-.139 3.767-3.453 1.592-7.735a7.418 7.418 0 00-1.264-2.085 30.855 30.855 0 01-2.192-2.78l-.198-.29a4.329 4.329 0 01-.781-2.326c-.004-.185.004-.37.025-.555-1.423 1.295-3.508 4.052-2.525 8.56a.459.459 0 01-.15.45.501.501 0 01-.477.104 3.386 3.386 0 01-1.244-.8 3.224 3.224 0 01-.762-1.24c-.876 1.922-1.927 5.927 2.253 9.319a.458.458 0 01.146.527.478.478 0 01-.181.227.508.508 0 01-.284.085l.001-.001z" fill="#fff"/></svg>