<svg width="25" height="25" fill="none" xmlns="http://www.w3.org/2000/svg"><path d="M24.381 5.086A.624.624 0 0025 4.473V.619A.617.617 0 0024.381 0h-3.854a.616.616 0 00-.613.619V1.96H5.086V.619A.624.624 0 004.473 0H.619A.625.625 0 000 .619v3.854c0 .337.276.613.619.613H1.96v14.828H.619a.624.624 0 00-.619.613v3.854c0 .337.276.613.619.619h3.854a.616.616 0 00.613-.619V23.04h14.828v1.342c0 .337.276.613.613.619h3.854a.625.625 0 00.619-.619v-3.854a.616.616 0 00-.619-.613H23.04V5.086h1.342zM1.225 3.86V1.225H3.86V3.86H1.225zM3.86 23.775H1.225V21.14H3.86v2.634zm16.054-3.248v1.287H5.086v-1.287a.615.615 0 00-.613-.613H3.186V5.086h1.287a.615.615 0 00.613-.613V3.186h14.828v1.287c0 .337.276.613.613.613h1.287v14.828h-1.287a.615.615 0 00-.613.613zm3.86.613v2.634H21.14V21.14h2.634zM21.14 3.86V1.225h2.634V3.86H21.14z" fill="#fff"/></svg>