<svg width="32" height="32" fill="none" xmlns="http://www.w3.org/2000/svg"><g clip-path="url(#clip0)" fill="#fff"><path d="M31.349 26.026H1.757l4.596-8.284a5.224 5.224 0 013.802-2.647 5.224 5.224 0 014.42 1.386l2.052 1.951a3.788 3.788 0 005.692-.541l.039-.055c.28-.392.716-.611 1.2-.604.481.009.91.244 1.177.646l3.79 5.718a.651.651 0 101.085-.72l-3.79-5.718a2.746 2.746 0 00-4.521-.08l-.04.054a2.485 2.485 0 01-3.735.356l-2.053-1.95a6.518 6.518 0 00-5.514-1.73 6.517 6.517 0 00-4.743 3.302L.082 26.361a.651.651 0 00.57.967h30.697a.651.651 0 100-1.302z"/><path d="M14.966 14.371c.284.22.694.17.914-.115l1.036-1.332 2.628 2.042-1.036 1.333a.651.651 0 101.029.799l1.435-1.847a.65.65 0 00-.115-.913l-1.314-1.021 4.397-5.66 1.314 1.022a.649.649 0 00.914-.115.651.651 0 00-.114-.914l-3.657-2.84a.651.651 0 00-.8 1.028l1.315 1.021-4.398 5.66-1.314-1.022a.651.651 0 00-.913.115l-1.435 1.846a.651.651 0 00.114.914z"/></g><defs><clipPath id="clip0"><path fill="#fff" d="M0 0h32v32H0z"/></clipPath></defs></svg>