<svg width="42" height="42" fill="none" xmlns="http://www.w3.org/2000/svg"><path d="M32.156 11.813h-5.25V7.874h5.25v3.938zm-10.5 22.968h-5.25v-5.25h5.25v5.25zm9.188 3.938h-5.25v-5.25h5.25v5.25zm6.562 0h-5.25v-5.25h5.25v5.25z" fill="#96C12A"/><path d="M41.344 27.563L38.6 13.782h-2.507v-4.05l1.478 1.056a1.973 1.973 0 003.088-1.925 1.95 1.95 0 00-.797-1.276l-9.189-6.564a1.997 1.997 0 00-2.287.001L19.2 7.585a1.953 1.953 0 00-.799 1.278c-.087.519.033 1.04.34 1.47.61.85 1.895 1.064 2.746.456l1.48-1.058v4.05h-6.306l-.915-.812c-.722-.644-1.897-.643-2.617-.001L1.318 23.466a1.95 1.95 0 00-.658 1.356 1.969 1.969 0 003.274 1.587l.66-.587v15.522H40.03v-9.188h1.313v-4.593zm-3.82-12.469l2.507 12.534v.591h-15.75v-2.397l.66.587c.781.695 2.087.617 2.78-.163.35-.393.525-.898.494-1.424a1.95 1.95 0 00-.657-1.354L24.783 21h11.31v-5.906h1.431zm-6.68 4.594h-2.625v-5.25h2.625v5.25zM20.725 9.72a.676.676 0 01-.915-.151.652.652 0 01-.114-.49.643.643 0 01.266-.426l9.188-6.562a.668.668 0 01.762 0L39.1 8.655a.65.65 0 01.152.913.671.671 0 01-.916.152L29.53 3.43l-8.806 6.29zm8.806-4.677l5.25 3.75v10.894h-2.625v-6.563h-5.25v6.563h-2.625V8.794l5.25-3.75zm-6.562 10.05v4.294l-4.83-4.294h4.83zM3.06 25.429a.674.674 0 01-.927-.055.649.649 0 01-.164-.475.65.65 0 01.22-.451l11.812-10.5a.656.656 0 01.873 0l11.812 10.5c.13.117.208.276.218.452a.647.647 0 01-.165.476.675.675 0 01-.926.053L14.438 15.317 3.06 25.428zm11.377-8.356l8.53 7.583v2.25h-5.25v-5.25h-6.562v5.25h-5.25v-2.25l8.532-7.583zm1.968 9.834H12.47v-3.938h3.937v3.938zm-10.5 1.312H22.97v11.813h-7.875v-7.875H7.219v7.875H5.906V28.218zm7.875 11.813H8.53v-6.563h5.25v6.563zm24.938 0H24.28v-7.875h14.44v7.875zM24.28 30.843V29.53h15.75v1.313H24.28z" fill="#000"/></svg>