<svg width="38" height="38" fill="none" xmlns="http://www.w3.org/2000/svg"><path d="M35.031 29.094h-4.75v-4.75h4.75v4.75zm0 5.937h-4.75v-4.75h4.75v4.75zm0-16.625h-5.937v-7.125h5.937v7.125zm-11.875 5.938v2.894l2.466 1.541a1.07 1.07 0 010 1.817l-2.466 1.54v2.895h5.938V24.344h-5.938z" fill="#96C12A"/><path d="M35.625 21.969h-14.25c-.982 0-1.781.799-1.781 1.781v1.781H4.75a4.16 4.16 0 00-4.156 4.157 4.16 4.16 0 004.156 4.156h14.844v1.781c0 .982.799 1.781 1.781 1.781h14.25c.982 0 1.781-.799 1.781-1.781V23.75c0-.982-.799-1.781-1.781-1.781zM7.719 29.094H20.78v1.187H7.72v-1.187zm13.062-1.188H7.72V26.72h13.06v1.187zM7.72 31.47h13.06v1.187H7.72V31.47zm14.25-4.273l3.338 2.087c.14.087.224.239.224.404a.474.474 0 01-.224.405L21.97 32.18v-4.983zm-20.19 2.49a2.972 2.972 0 012.97-2.967h1.781v5.937H4.75a2.972 2.972 0 01-2.969-2.968zm34.438 5.938a.595.595 0 01-.594.594h-14.25a.595.595 0 01-.594-.594v-1.781h.764l4.391-2.745c.49-.306.783-.833.783-1.412 0-.578-.293-1.105-.783-1.411l-4.39-2.745h-.765V23.75c0-.327.267-.594.594-.594h14.25c.327 0 .594.267.594.594v11.875zm-.593-30.281h-14.25c-.982 0-1.781.799-1.781 1.781V19c0 .982.799 1.781 1.781 1.781h14.25c.982 0 1.781-.799 1.781-1.781V7.125c0-.982-.799-1.781-1.781-1.781zm.594 1.781v1.781h-8.313V6.531h7.719c.327 0 .594.267.594.594zm-11.875 7.719H20.78v-1.188h3.563v1.188zm0 1.187v1.188H20.78V16.03h3.563zm0-3.562H20.78V11.28h3.563v1.188zM20.78 19v-.594h3.563v1.188h-2.969A.595.595 0 0120.78 19zm14.844.594H25.531v-9.5h-4.75V7.125c0-.327.267-.594.594-.594h5.344v3.563h9.5V19a.595.595 0 01-.594.594zM9.361 2.016a1.28 1.28 0 011.465 0l7.829 5.592.69-.966-7.83-5.593a2.485 2.485 0 00-2.844 0L.842 6.642l.69.966 7.83-5.592z" fill="#000"/><path d="M17.275 9.541l.69-.967-7.871-5.622-7.87 5.622.69.967 1.242-.888v9.16H2.97V19h14.25v-1.188h-1.19v-9.16l1.244.889zm-5.994 8.271H8.906v-4.75h2.375v4.75zm3.563 0h-2.375v-5.937h-4.75v5.938H5.344V7.803l4.75-3.392 4.75 3.392v10.009z" fill="#000"/><path d="M7.719 10.688h4.75V7.124h-4.75v3.563zm1.187-2.376h2.375V9.5H8.906V8.312z" fill="#000"/></svg>