<svg width="36" height="51" fill="none" xmlns="http://www.w3.org/2000/svg"><path d="M30.934 18.394h-8.36v1.672h8.36a2.511 2.511 0 012.509 2.508v3.366a4.137 4.137 0 00-2.508-.858H4.18a2.511 2.511 0 01-2.508-2.508 2.511 2.511 0 012.508-2.508h9.197v-1.672H4.18A4.185 4.185 0 000 22.574V46.82A4.185 4.185 0 004.18 51h26.755a4.185 4.185 0 004.18-4.18V22.574a4.185 4.185 0 00-4.18-4.18zm2.509 24.245H23.41a4.185 4.185 0 01-4.18-4.18 4.185 4.185 0 014.18-4.18h10.033v8.36zm0-10.032H23.41a5.86 5.86 0 00-5.853 5.852 5.86 5.86 0 005.853 5.853h10.033v2.508a2.511 2.511 0 01-2.509 2.508H4.18a2.511 2.511 0 01-2.508-2.508V25.916a4.159 4.159 0 002.508.838h26.754a2.511 2.511 0 012.509 2.508v3.345z" fill="#000"/><path d="M30.935 21.738H4.18v1.672h26.754v-1.672z" fill="#000"/><path d="M17.558 22.574a6.689 6.689 0 100-13.377 6.689 6.689 0 000 13.377z" fill="#96C12A"/><path d="M18.393 18.393h-1.672a.838.838 0 01-.836-.836h-1.672a2.511 2.511 0 002.508 2.509v.836h1.672v-.837a2.511 2.511 0 002.509-2.508 2.511 2.511 0 00-2.509-2.508h-1.672a.838.838 0 01-.836-.836c0-.461.376-.836.836-.836h1.672c.461 0 .837.375.837.836h1.672a2.511 2.511 0 00-2.509-2.508v-.836h-1.672v.836a2.511 2.511 0 00-2.508 2.508 2.511 2.511 0 002.508 2.508h1.672a.837.837 0 010 1.672zm2.509 20.066a2.511 2.511 0 002.508 2.508 2.511 2.511 0 002.508-2.508 2.511 2.511 0 00-2.508-2.508 2.511 2.511 0 00-2.508 2.508zm3.344 0a.837.837 0 11-1.674-.002.837.837 0 011.674.002zM18.393 0h-1.672v6.689h1.672V0zm5.853 2.508h-1.672v6.689h1.672V2.508zM12.541 4.18H10.87v5.017h1.672V4.181z" fill="#000"/></svg>