<svg width="36" height="36" fill="none" xmlns="http://www.w3.org/2000/svg"><path d="M9 34.313a1.69 1.69 0 01-1.688-1.688c0-.93.758-1.688 1.688-1.688.93 0 1.688.758 1.688 1.688A1.69 1.69 0 019 34.313zm5.625 0a1.69 1.69 0 01-1.688-1.688c0-.93.758-1.688 1.688-1.688.93 0 1.688.758 1.688 1.688a1.69 1.69 0 01-1.688 1.688zm10.688-10.125a2.816 2.816 0 01-2.813-2.813 2.816 2.816 0 012.813-2.813 2.816 2.816 0 012.812 2.813 2.816 2.816 0 01-2.813 2.813z" fill="#96C12A"/><path d="M23.063 10.688h4.5V7.312h-4.5v3.375zm1.125-2.25h2.25v1.124h-2.25V8.438z" fill="#000"/><path d="M29.712 11.813h5.726V6.186H33.94L26.63.563h-2.536L7.78 6.188H5.361L2.573 9.534a1.389 1.389 0 001.066 2.278h2.549v3.376H.563v5.624h5.625c0 .62.504 1.125 1.125 1.125h1.125c.62 0 1.124-.504 1.124-1.125h5.626v-5.625H9.561v-3.374h11.35a1.7 1.7 0 001.026 1.021v7.885l-4.164 2.803a3.93 3.93 0 00-3.149-1.584H11.25a2.816 2.816 0 00-2.813 2.812v.563H3.375a2.816 2.816 0 00-2.813 2.812v2.813H5.64a2.784 2.784 0 00-.577 1.687 2.816 2.816 0 002.812 2.813H31.5a3.942 3.942 0 003.938-3.938v-4.191l-6.75-5.957v-8.518c.476-.17.854-.547 1.024-1.021zm4.6-1.126h-4.5V7.313h4.5v3.375zm-4.603-4.5a1.684 1.684 0 00-1.173-1.068l-.88-2.347 4.44 3.416H29.71zm-5.132-4.5h1.47l1.266 3.375h-4.001l1.265-3.375zm-3.765 5.625v3.375h-3.375l2.532-3.374h.843zm-4.5 3l-2.25-3h4.5l-2.25 3zm-1.125.376h-4.5l2.25-3 2.25 3zm-5.624-.376l-2.25-3h4.5l-2.25 3zm-6.188.112c0-.061.021-.12.061-.168L5.89 7.311h.017l2.532 3.375h-4.8a.264.264 0 01-.263-.263zm2.813 5.889v1.125h-4.5v-1.125h4.5zm-4.5 3.375v-1.125h4.5v1.125h-4.5zm7.875 0v-1.125h4.5v1.125h-4.5zm4.5-3.375v1.125h-4.5v-1.125h4.5zm-5.626 4.5H7.313v-9h1.125v9zM20.916 6.188h-9.684l12.01-4.142-1.153 3.073a1.687 1.687 0 00-1.173 1.069zm1.258 28.125h-4.188a2.786 2.786 0 00.576-1.688c0-.636-.22-1.216-.577-1.688h.578v-2.631l3.375-2.283v7.165c0 .391.083.773.236 1.124zm.889-1.126c0-.93.757-1.687 1.687-1.687.345 0 .68.106.966.308l.548.385.285-.606a1.119 1.119 0 012.1.196l-.88 1.468a1.415 1.415 0 00-.168 1.061h-4.095a1.68 1.68 0 01-.444-1.124zm-7.875-3.374h-3.376v-4.5h2.813c.31 0 .563.252.563.562v3.938zm-13.5-1.688c0-.93.757-1.688 1.687-1.688h6.188V24.75c0-.93.757-1.688 1.687-1.688h3.375a2.816 2.816 0 012.813 2.813v3.938h-1.125v-3.938a1.69 1.69 0 00-1.688-1.688h-2.813c-.62 0-1.124.505-1.124 1.125v4.5H1.687v-1.687zm13.5 6.188H7.875a1.69 1.69 0 01-1.688-1.688c0-.93.758-1.688 1.688-1.688h7.875c.93 0 1.688.758 1.688 1.688a1.69 1.69 0 01-1.688 1.688h-.563zM34.311 31.5a2.816 2.816 0 01-2.812 2.813h-2.493a.319.319 0 01-.273-.483l3.085-5.142h2.494V31.5zm-5.624-1.383V26.55l2.08 1.702-1.445 2.409a2.26 2.26 0 00-.636-.544zm5.337-2.555H31.7l-4.765-3.898a2.788 2.788 0 01-1.19.48l1.817 1.486v4.183c-.663 0-1.285.298-1.707.79a2.783 2.783 0 00-1.106-.228c-.636 0-1.216.22-1.688.577v-5.689l1.679-1.135a2.791 2.791 0 01-1.173-.565l-5.006 3.384v-1.072c0-.479-.09-.936-.247-1.361l4.215-2.838c-.01-.1-.03-.198-.03-.301 0-.628.214-1.201.563-1.67v-6.767h4.5v6.767c.348.469.562 1.043.562 1.67 0 .3-.06.582-.146.853l6.046 5.334zm-5.9-15.75H22.5a.563.563 0 01-.563-.562v-4.5c0-.31.252-.563.563-.563h5.625c.31 0 .563.253.563.563v4.5c0 .31-.252.563-.563.563z" fill="#000"/><path d="M2.813 27.563h1.124v1.125H2.813v-1.125zm2.25 0h1.125v1.125H5.063v-1.125zm2.25 0h1.125v1.125H7.312v-1.125z" fill="#000"/></svg>