<svg width="40" height="40" fill="none" xmlns="http://www.w3.org/2000/svg"><g clip-path="url(#clip0)" fill="#96C12A"><path d="M30.302 13.625a.814.814 0 00-1.15 0L18.338 24.439l-5.935-5.933a.814.814 0 00-1.15 1.151l6.509 6.509a.818.818 0 001.15 0l11.39-11.39a.814.814 0 000-1.151z"/><path d="M36.47 5.284L20.197.402a.815.815 0 00-.467 0L3.459 5.284a.813.813 0 00-.58.78v17.898c0 7.196 10.97 13.596 16.845 15.423a.808.808 0 00.482 0c5.874-1.829 16.844-8.227 16.844-15.423V6.063a.814.814 0 00-.58-.78zm-1.047 18.678c0 5.713-9.052 11.721-15.458 13.793-6.406-2.072-15.458-8.08-15.458-13.793V6.67l15.458-4.64 15.458 4.64v17.293z"/></g><defs><clipPath id="clip0"><path fill="#fff" transform="translate(.439 .368)" d="M0 0h39.053v39.053H0z"/></clipPath></defs></svg>