<svg width="57" height="57" fill="none" xmlns="http://www.w3.org/2000/svg"><path d="M42.785 29.841a.684.684 0 00-.684.684.87.87 0 01-1.737 0 .684.684 0 10-1.368 0 2.239 2.239 0 002.236 2.237 2.239 2.239 0 002.236-2.237.684.684 0 00-.684-.684z" fill="#96C12A"/><path d="M49.205 29.953l-1.925-.617a.805.805 0 01-.52-.526 12.41 12.41 0 00-1.82-3.6 13.21 13.21 0 00-1.216-1.434c.284-1.246.439-2.656.419-3.874-.029-1.743-.377-2.765-1.065-3.125-.37-.195-1.498-.785-7.6 2.008a2.247 2.247 0 00-.404.241 26.55 26.55 0 00-1.254-.305l-.155-.031a9.32 9.32 0 00.837-3.464.684.684 0 10-1.366-.062 7.946 7.946 0 01-2.326 5.276 7.918 7.918 0 01-2.881 1.84 19.838 19.838 0 00-5.506 0 7.917 7.917 0 01-2.881-1.84 7.915 7.915 0 01-2.334-5.635c0-2.128.829-4.129 2.334-5.634a7.916 7.916 0 015.634-2.333c2.128 0 4.13.828 5.634 2.333a7.965 7.965 0 011.485 2.051.684.684 0 101.222-.615 9.327 9.327 0 00-1.74-2.403 9.275 9.275 0 00-6.601-2.735 9.275 9.275 0 00-6.601 2.735 9.275 9.275 0 00-2.735 6.601c0 2.494.971 4.839 2.735 6.602a9.333 9.333 0 001.647 1.312c-.425.11-.847.235-1.264.374a.684.684 0 10.433 1.298 18.357 18.357 0 0111.57 0 .681.681 0 00.865-.432.684.684 0 00-.432-.866c-.417-.14-.84-.263-1.264-.374a9.333 9.333 0 002.84-2.776 26.111 26.111 0 011.292.286l-.022.09c-.333 1.583-.312 2.983.065 4.16.338 1.06.948 1.918 1.814 2.55 1.02.747 2.251 1.069 3.367 1.069.839 0 1.613-.183 2.181-.505.643-.364 1.182-1.131 1.608-2.283a11.043 11.043 0 012.18 3.91 2.176 2.176 0 001.407 1.42l1.926.616c.505.162.844.627.844 1.157v3.193c0 .53-.34.995-.844 1.157l-3.102.993c-.496.16-.916.5-1.183.96-1.218 2.107-3.134 3.85-5.694 5.18-.296.154-.501.43-.563.756l-.993 5.26a.308.308 0 01-.302.25h-3.23a.308.308 0 01-.302-.25l-.55-2.907a1.075 1.075 0 00-1.222-.864c-1.392.21-2.825.317-4.261.317-1.069 0-2.123-.06-3.135-.178a1.084 1.084 0 00-1.186.87l-.523 2.762a.308.308 0 01-.301.25h-3.23a.308.308 0 01-.303-.252l-.956-4.968a1.074 1.074 0 00-.552-.747c-4.364-2.33-6.671-6.223-6.671-11.257 0-2.543.556-4.792 1.653-6.685 1.025-1.766 2.52-3.226 4.446-4.34a.684.684 0 00-.685-1.184c-3.734 2.16-5.986 5.492-6.606 9.725l-.198-.018a3.406 3.406 0 00-.25-1.365c-.397-.986-1.212-1.698-2.077-1.814-.682-.091-1.33.198-1.78.793-.653.862-.546 1.545-.342 1.965.344.71 1.23 1.212 2.7 1.528-.041.06-.086.121-.134.182-.869 1.09-1.892 1.33-2.556 1.353a.718.718 0 00-.7.714v.003c0 .384.303.697.686.715.05.002.1.003.154.003.84 0 2.19-.31 3.486-1.935.204-.256.37-.527.499-.806.13.014.253.027.372.038v-.001c-.023.37-.036.747-.036 1.13 0 2.848.679 5.387 2.018 7.548 1.235 1.992 3.002 3.623 5.256 4.85l.93 4.83c.15.79.841 1.363 1.646 1.363h3.23c.804 0 1.496-.573 1.646-1.364l.472-2.497c.982.104 1.999.157 3.026.157 1.41 0 2.819-.099 4.191-.293l.499 2.634c.15.79.842 1.363 1.646 1.363h3.23c.804 0 1.496-.573 1.646-1.364l.967-5.121c2.733-1.445 4.792-3.343 6.123-5.643a.748.748 0 01.416-.343l3.102-.993A2.575 2.575 0 0051 35.605v-3.193a2.575 2.575 0 00-1.795-2.46zm-6.533-8.13c-.263 2.252-.97 4.178-1.68 4.58-.806.457-2.668.545-4.066-.478-1.4-1.024-1.865-2.865-1.347-5.324a.825.825 0 01.47-.572c3.424-1.567 5.398-2.08 6.131-2.08.111 0 .194.012.248.033.22.235.51 1.57.244 3.842zM5.92 29.419c-.07-.146.097-.402.203-.543.168-.221.322-.267.44-.267.024 0 .047.002.068.005.314.042.755.388.989.968.055.137.126.363.143.646-.947-.197-1.683-.48-1.843-.809z" fill="#96C12A"/><path d="M25.84 14.022v-2.448c.844.06 1.158.446 1.447.446.362 0 .53-.458.53-.687 0-.591-1.157-.844-1.977-.868v-.326c0-.145-.18-.277-.362-.277-.205 0-.35.132-.35.277v.35c-1.145.12-2.29.723-2.29 2.242 0 1.544 1.205 1.978 2.29 2.364v2.833c-1.23-.096-1.555-.94-1.953-.94-.301 0-.555.398-.555.687 0 .591 1.013 1.399 2.509 1.423v.374c0 .145.144.277.35.277.18 0 .361-.132.361-.277v-.41c1.302-.18 2.195-1 2.195-2.484 0-1.64-1.146-2.17-2.195-2.556zm-.639-.23c-.64-.24-1.158-.494-1.158-1.181 0-.627.483-.929 1.158-1.013v2.195zm.567 4.112V15.36c.59.253 1.06.59 1.06 1.35 0 .688-.41 1.074-1.06 1.194z" fill="#96C12A"/></svg>