<svg width="44" height="40" fill="none" xmlns="http://www.w3.org/2000/svg"><path d="M21.29 13.484a.71.71 0 101.42 0v-1.42a.71.71 0 10-1.42 0v1.42zm.71 1.42a.71.71 0 00-.71.71v1.419a.71.71 0 101.42 0v-1.42a.71.71 0 00-.71-.71zm7.428 12.201l-1.276-.622a.709.709 0 10-.622 1.275l1.275.623a.71.71 0 10.623-1.276zm3.189 1.558l-1.276-.623a.71.71 0 00-.623 1.276l1.276.622a.71.71 0 10.623-1.275z" fill="#96C12A"/><path d="M43.609 34.14l-6.705-3.355v-18.01a.71.71 0 00-.392-.636L22.71 5.24V.71a.71.71 0 00-1.42 0v4.53l-13.8 6.9a.71.71 0 00-.393.635v18.043L.395 34.14a.708.708 0 00.362 1.344.708.708 0 00.268-.072l6.812-3.377 13.846 6.924a.713.713 0 00.635 0l13.88-6.94 6.776 3.391a.709.709 0 00.635-1.269zM21.29 37.175l-11.86-5.93.757-.375a.71.71 0 10-.631-1.272l-1.04.516V13.922l12.775 6.387v16.866zM22 19.078L9.393 12.774 21.29 6.825v3.11a.71.71 0 001.42 0v-3.11l11.896 5.95L22 19.077zm13.483 10.996l-.948-.475a.71.71 0 00-.635 1.27l.71.355-11.9 5.951V20.31l12.773-6.388v16.152z" fill="#96C12A"/><path d="M18.162 26.896a.707.707 0 00.31-.072l1.276-.623a.71.71 0 10-.623-1.275l-1.275.623a.709.709 0 00.312 1.348v-.001zm-3.189 1.557a.706.706 0 00.311-.072l1.275-.623a.71.71 0 10-.622-1.275l-1.276.622a.709.709 0 00.312 1.348zm-3.188 1.557a.71.71 0 00.31-.072l1.276-.623a.71.71 0 00-.623-1.276l-1.275.623a.71.71 0 00.311 1.348z" fill="#96C12A"/></svg>