<svg width="50" height="50" fill="none" xmlns="http://www.w3.org/2000/svg"><path d="M46.5 22.594l-1.295-5.18a.783.783 0 00.62-.765v-.835a3.292 3.292 0 00-3.289-3.288H36.64v-1.723a1.62 1.62 0 00-1.618-1.617H4.958a1.62 1.62 0 00-1.618 1.617V25a.783.783 0 001.566 0V10.803c0-.028.023-.052.052-.052h30.063c.029 0 .052.024.052.053V25a.783.783 0 001.566 0v-.887h9.239a2.56 2.56 0 012.433 1.774h-2.434a.783.783 0 00-.783.783v1.67c0 1.353 1.1 2.453 2.453 2.453h.887v3.445h-2.047a4.966 4.966 0 00-4.686-3.34 4.966 4.966 0 00-4.685 3.34h-.377V28.34a.783.783 0 00-1.566 0v5.898H18.83a4.966 4.966 0 00-4.686-3.34 4.966 4.966 0 00-4.686 3.34h-4.5a.052.052 0 01-.052-.053v-1.722h3.393a.783.783 0 000-1.566H.783a.783.783 0 000 1.566H3.34v1.722a1.62 1.62 0 001.618 1.618h4.23l-.002.053a4.964 4.964 0 004.958 4.958 4.964 4.964 0 004.958-4.958l-.001-.053h17.643v.053a4.964 4.964 0 004.957 4.958 4.964 4.964 0 004.959-4.958l-.002-.053h2.559c.432 0 .783-.35.783-.782V26.67a4.13 4.13 0 00-3.5-4.076zm-9.861-8.502h5.897c.95 0 1.723.772 1.723 1.722v.052h-7.62v-1.774zm0 8.455v-5.115h6.956l1.28 5.115h-8.236zM14.144 39.248a3.396 3.396 0 01-3.392-3.392 3.396 3.396 0 013.392-3.393 3.396 3.396 0 013.393 3.393 3.396 3.396 0 01-3.393 3.392zm27.558 0a3.396 3.396 0 01-3.393-3.392 3.396 3.396 0 013.393-3.393 3.396 3.396 0 013.392 3.393 3.396 3.396 0 01-3.392 3.392zm6.732-10.02h-.887a.888.888 0 01-.887-.888v-.887h1.774v1.774z" fill="#96C12A"/><path d="M14.144 34.238a1.62 1.62 0 00-1.618 1.618 1.62 1.62 0 001.618 1.618 1.62 1.62 0 001.618-1.618 1.62 1.62 0 00-1.618-1.618zm27.558 0a1.62 1.62 0 00-1.618 1.618 1.62 1.62 0 001.617 1.618 1.62 1.62 0 001.618-1.618 1.62 1.62 0 00-1.617-1.618zm-9.186-3.34H20.825a.783.783 0 000 1.566h11.69a.783.783 0 000-1.566zm-20.042-3.341H2.453a.783.783 0 000 1.566h10.02a.783.783 0 000-1.566zm14.75-10.627a.783.783 0 00-1.107 0l-6.963 6.963-3.621-3.622a.783.783 0 10-1.107 1.107l4.175 4.175a.78.78 0 001.107 0l7.516-7.515a.783.783 0 000-1.107z" fill="#96C12A"/></svg>