<svg width="40" height="40" fill="none" xmlns="http://www.w3.org/2000/svg"><g clip-path="url(#clip0)" fill="#96C12A"><path d="M39.369 6.63l-1.2-6.05a.667.667 0 00-.784-.524L4.354 6.624h-1.02a.667.667 0 00-.667.666v3.4A3.325 3.325 0 000 13.957v22.666a3.337 3.337 0 003.333 3.334h36A.667.667 0 0040 39.29v-32a.667.667 0 00-.631-.66zm-2.38-5.136l1.019 5.13H11.191l25.798-5.13zM1.911 12.542l.004.003a2.04 2.04 0 01.752-.473v3.763c-.015-.005-.03-.008-.044-.014a1.952 1.952 0 01-.25-.12c-.04-.022-.083-.04-.122-.067a2.054 2.054 0 01-.333-.261 2.005 2.005 0 01-.007-2.83zm36.756 18.081h-9.334V25.29h9.334v5.334zm0-6.666h-10a.667.667 0 00-.667.666v6.667c0 .368.299.667.667.667h10v6.666H3.333a2 2 0 01-2-2v-20c.03.023.064.038.094.06.059.041.12.076.18.114a3.346 3.346 0 00.548.27c.129.048.26.087.393.119.062.015.122.034.185.046.198.037.399.057.6.058h35.334v6.667zm-21.953-8a4.667 4.667 0 019.239 0h-9.239zm21.953 0H27.294a6 6 0 00-11.921 0H4v-8h34.667v8z"/><path d="M36.667 9.29h-4v1.334H36v3.333h1.333v-4a.667.667 0 00-.666-.667zM6 9.29a.667.667 0 00-.667.667v4h1.334v-3.333H10V9.29H6zm26 18h-1.333v1.334H32V27.29z"/></g><defs><clipPath id="clip0"><path fill="#fff" d="M0 0h40v40H0z"/></clipPath></defs></svg>