<svg width="42" height="42" fill="none" xmlns="http://www.w3.org/2000/svg"><g clip-path="url(#clip0)" fill="#96C12A"><path d="M40.25 11.62a.872.872 0 01-.824-.582C37.45 5.482 32.154 1.75 26.25 1.75a13.91 13.91 0 00-9.898 4.102c-.262.263-.525.54-.77.835a.875.875 0 11-1.344-1.122c.28-.336.58-.654.879-.95A15.64 15.64 0 0126.25 0c6.645 0 12.602 4.2 14.824 10.453a.875.875 0 01-.824 1.167zM35.875 42h-15.75a.875.875 0 01-.875-.875v-5.819l-4.225 1.285c-.285.102-.642.16-1.025.16-1.93 0-3.5-1.57-3.5-3.5V28H7a1.73 1.73 0 01-1.75-1.75c0-.33.093-.645.271-.935l2.471-3.908a.874.874 0 111.479.934l-2.468 3.903 4.372.005c.483 0 .875.392.875.875v6.125c0 .965.784 1.75 1.75 1.75.182 0 .343-.024.478-.072l5.391-1.641a.886.886 0 01.776.135.874.874 0 01.355.703v6.125h14v-7.927c0-3.052.931-6.003 2.695-8.533a13.805 13.805 0 002.555-8.04.875.875 0 011.75 0c0 3.27-.992 6.398-2.873 9.046a13.127 13.127 0 00-2.377 7.527v8.802a.875.875 0 01-.875.875z"/><path d="M18.375 22.75h-14A4.38 4.38 0 010 18.375v-8.75A4.38 4.38 0 014.375 5.25h14A2.628 2.628 0 0121 7.875V10.5a.875.875 0 01-1.75 0V7.875A.876.876 0 0018.375 7h-14A2.628 2.628 0 001.75 9.625v8.75A2.628 2.628 0 004.375 21h14a.876.876 0 00.875-.875V17.5a.875.875 0 011.75 0v2.625a2.628 2.628 0 01-2.625 2.625z"/><path d="M39.375 18.375h-24.5a2.628 2.628 0 01-2.625-2.625v-3.5a2.628 2.628 0 012.625-2.625h24.5A2.628 2.628 0 0142 12.25v3.5a2.628 2.628 0 01-2.625 2.625zm-24.5-7a.876.876 0 00-.875.875v3.5c0 .483.394.875.875.875h24.5a.876.876 0 00.875-.875v-3.5a.876.876 0 00-.875-.875h-24.5zM6.125 22.75a.875.875 0 01-.875-.875V6.125a.875.875 0 011.75 0v15.75a.875.875 0 01-.875.875z"/></g><defs><clipPath id="clip0"><path fill="#fff" d="M0 0h42v42H0z"/></clipPath></defs></svg>