<svg width="17" height="18" fill="none" xmlns="http://www.w3.org/2000/svg"><g clip-path="url(#clip0)" fill="#96C12A"><path d="M8.5 18a.331.331 0 01-.141-.032l-8.146-3.75A.375.375 0 010 13.876v-9.75c0-.207.159-.375.354-.375.196 0 .354.168.354.375v9.504L8.5 17.215l7.792-3.586V4.125c0-.207.158-.375.354-.375.195 0 .354.168.354.375v9.75c0 .15-.084.284-.213.344l-8.146 3.75A.331.331 0 018.5 18z"/><path d="M8.5 8.25a.331.331 0 01-.141-.031L.213 4.469A.375.375 0 010 4.124c0-.15.084-.284.213-.344L8.36.031a.331.331 0 01.282 0l8.146 3.75c.13.06.213.195.213.344 0 .15-.084.284-.213.343L8.64 8.218a.331.331 0 01-.141.032zM1.242 4.125L8.5 7.466l7.258-3.341L8.5.784 1.242 4.125zM16.646 14.25a.326.326 0 01-.141-.031l-.65-.3a.383.383 0 01-.183-.493.347.347 0 01.465-.194l.65.299c.18.082.261.303.183.493a.353.353 0 01-.324.226zm-2.229-1.027a.326.326 0 01-.141-.031l-1.053-.485a.385.385 0 01-.185-.493.347.347 0 01.466-.195l1.054.485a.385.385 0 01.184.493.355.355 0 01-.325.226zm-2.634-1.212a.326.326 0 01-.14-.031l-1.054-.485a.385.385 0 01-.184-.493.347.347 0 01.466-.195l1.053.485c.18.082.261.304.184.493a.355.355 0 01-.325.226zM9.15 10.8a.328.328 0 01-.141-.032l-.509-.234-.509.234a.346.346 0 01-.465-.195.383.383 0 01.184-.493l.649-.3a.331.331 0 01.282 0l.65.3c.18.082.26.304.183.493a.353.353 0 01-.324.226zm-6.567 2.423a.354.354 0 01-.325-.226.385.385 0 01.184-.493l1.054-.484a.347.347 0 01.466.194.385.385 0 01-.184.493l-1.053.486a.34.34 0 01-.142.03zm2.634-1.212a.354.354 0 01-.325-.225.385.385 0 01.184-.494l1.053-.485a.347.347 0 01.466.195.385.385 0 01-.184.493l-1.053.485a.325.325 0 01-.141.031zM.354 14.25a.353.353 0 01-.324-.226.384.384 0 01.183-.493l.65-.3a.347.347 0 01.465.195.383.383 0 01-.183.493l-.65.3a.326.326 0 01-.14.031z"/><path d="M8.5 18a.365.365 0 01-.354-.375v-9.75c0-.207.159-.375.354-.375.196 0 .354.168.354.375v9.75A.365.365 0 018.5 18zm0-10.875a.365.365 0 01-.354-.375V5.625c0-.207.159-.375.354-.375.196 0 .354.168.354.375V6.75a.365.365 0 01-.354.375zm0-2.625a.365.365 0 01-.354-.375V3c0-.207.159-.375.354-.375.196 0 .354.168.354.375v1.125A.365.365 0 018.5 4.5zm0-2.625a.365.365 0 01-.354-.375V.375C8.146.168 8.305 0 8.5 0c.196 0 .354.168.354.375V1.5a.365.365 0 01-.354.375z"/></g><defs><clipPath id="clip0"><path fill="#fff" d="M0 0h17v18H0z"/></clipPath></defs></svg>