<svg width="18" height="18" fill="none" xmlns="http://www.w3.org/2000/svg"><path d="M9 0a8.97 8.97 0 00-4.893 1.445.343.343 0 10.374.576A8.281 8.281 0 019 .687c4.584 0 8.313 3.73 8.313 8.313 0 4.584-3.73 8.313-8.313 8.313C4.416 17.313.687 13.583.687 9c0-2.337.993-4.58 2.724-6.153a.344.344 0 00-.463-.509A9.02 9.02 0 000 9c0 4.963 4.037 9 9 9s9-4.037 9-9-4.037-9-9-9z" fill="#96C12A"/><path d="M15.114 4.918a.343.343 0 10-.57.382 6.632 6.632 0 011.12 3.7A6.672 6.672 0 019 15.664 6.672 6.672 0 012.336 9 6.672 6.672 0 019 2.336c1.753 0 3.408.675 4.66 1.9a.343.343 0 10.481-.49A7.31 7.31 0 009 1.649C4.947 1.649 1.649 4.947 1.649 9S4.947 16.351 9 16.351s7.351-3.297 7.351-7.35a7.316 7.316 0 00-1.237-4.083z" fill="#96C12A"/><path d="M9 3.756c-1.132 0-2.21.355-3.117 1.027a.343.343 0 10.408.552A4.52 4.52 0 019 4.443 4.562 4.562 0 0113.557 9a4.549 4.549 0 01-3.448 4.422.343.343 0 10.166.666A5.235 5.235 0 0014.245 9 5.25 5.25 0 009 3.756zM6.117 12.53A4.543 4.543 0 014.443 9c0-.95.29-1.86.837-2.633a.343.343 0 10-.56-.397A5.21 5.21 0 003.755 9c0 1.58.702 3.06 1.926 4.062a.342.342 0 00.484-.049.344.344 0 00-.049-.483z" fill="#96C12A"/><path d="M11.977 8.657a.343.343 0 00-.343.343A2.637 2.637 0 019 11.634 2.637 2.637 0 016.366 9 2.637 2.637 0 019 6.366a.343.343 0 100-.687A3.324 3.324 0 005.68 9 3.323 3.323 0 009 12.32 3.323 3.323 0 0012.32 9a.343.343 0 00-.343-.343z" fill="#96C12A"/><path d="M9 7.603c-.77 0-1.397.627-1.397 1.397S8.23 10.397 9 10.397 10.397 9.77 10.397 9 9.77 7.603 9 7.603zM9 9.71a.71.71 0 11.002-1.421A.71.71 0 019 9.709z" fill="#96C12A"/></svg>