<svg width="51" height="51" fill="none" xmlns="http://www.w3.org/2000/svg"><path d="M38.877 18.393h-8.36v1.672h8.36a2.511 2.511 0 012.508 2.509v3.366a4.137 4.137 0 00-2.508-.858H12.123a2.511 2.511 0 01-2.508-2.508 2.511 2.511 0 012.508-2.509h9.197v-1.672h-9.197a4.185 4.185 0 00-4.18 4.18V46.82a4.185 4.185 0 004.18 4.18h26.754a4.185 4.185 0 004.18-4.18V22.573a4.185 4.185 0 00-4.18-4.18zm2.508 24.246H31.352a4.185 4.185 0 01-4.18-4.18 4.185 4.185 0 014.18-4.18h10.033v8.36zm0-10.033H31.352A5.86 5.86 0 0025.5 38.46a5.86 5.86 0 005.852 5.853h10.033v2.508a2.511 2.511 0 01-2.508 2.508H12.123a2.511 2.511 0 01-2.508-2.509V25.916a4.159 4.159 0 002.508.838h26.754a2.511 2.511 0 012.508 2.508v3.344z" fill="#000"/><path d="M38.877 21.738H12.123v1.672h26.754v-1.672z" fill="#000"/><path d="M25.5 22.574a6.688 6.688 0 100-13.377 6.688 6.688 0 000 13.377z" fill="#96C12A"/><path d="M26.336 18.393h-1.672a.837.837 0 01-.836-.836h-1.672a2.511 2.511 0 002.508 2.509v.836h1.672v-.837a2.511 2.511 0 002.508-2.508 2.511 2.511 0 00-2.508-2.508h-1.672a.837.837 0 010-1.672h1.672c.46 0 .836.375.836.836h1.672a2.511 2.511 0 00-2.508-2.508v-.836h-1.672v.836a2.511 2.511 0 00-2.509 2.508 2.511 2.511 0 002.509 2.508h1.672a.837.837 0 010 1.672zm2.508 20.066a2.511 2.511 0 002.509 2.508 2.511 2.511 0 002.508-2.508 2.511 2.511 0 00-2.508-2.508 2.511 2.511 0 00-2.509 2.508zm3.344 0a.837.837 0 11-1.674-.002.837.837 0 011.674.002zM26.336 0h-1.672v6.689h1.672V0zm5.852 2.508h-1.672v6.689h1.672V2.508zM20.484 4.18H18.81v5.017h1.673V4.18z" fill="#000"/></svg>