<svg width="40" height="40" fill="none" xmlns="http://www.w3.org/2000/svg"><path d="M10.625 27.5h18.75v5h-18.75v-5zm-4.375-15a1.877 1.877 0 01-1.875-1.875c0-1.034.841-1.875 1.875-1.875s1.875.841 1.875 1.875A1.877 1.877 0 016.25 12.5zm27.5 0a1.877 1.877 0 01-1.875-1.875c0-1.034.841-1.875 1.875-1.875s1.875.841 1.875 1.875A1.877 1.877 0 0133.75 12.5zM11.875 4.375A1.877 1.877 0 0110 2.5c0-1.034.841-1.875 1.875-1.875s1.875.841 1.875 1.875a1.877 1.877 0 01-1.875 1.875zm16.25 0A1.877 1.877 0 0126.25 2.5c0-1.034.841-1.875 1.875-1.875S30 1.466 30 2.5a1.877 1.877 0 01-1.875 1.875z" fill="#96C12A"/><path d="M20 13.125C7.416 13.125.625 16.667.625 20v1.875l2.033 13.766a4.4 4.4 0 004.328 3.734h26.028a4.4 4.4 0 004.328-3.734l2.026-13.674.004-.717h.003V20c0-3.333-6.79-6.875-19.375-6.875zM3.894 35.458L1.882 21.875h1.6a3.116 3.116 0 013.11 2.814l.287 2.873.044-.005 1.131 10.568H6.985a3.144 3.144 0 01-3.091-2.667zm9.054-7.914l1.246-.089-.212-2.974a2.413 2.413 0 01.646-1.832 2.408 2.408 0 011.78-.774h.534a2.435 2.435 0 012.433 2.433v3.175h1.25v-3.175a2.436 2.436 0 012.433-2.433h.534c.683 0 1.315.275 1.78.775.465.5.695 1.15.647 1.83l-.213 2.979 1.246.09.213-2.979.031-.436a2.44 2.44 0 012.427-2.259 2.435 2.435 0 012.419 2.692l-1.453 13.558h-4.393l.396-5.538-1.246-.09-.403 5.628h-4.418v-5.627h-1.25v5.627h-4.418l-.402-5.627-1.246.09.395 5.537H9.31L7.86 24.567a2.437 2.437 0 012.418-2.692c1.27 0 2.337.992 2.427 2.26l.244 3.41zm23.158 7.914a3.144 3.144 0 01-3.092 2.667h-1.069l1.132-10.567.044.005.288-2.874a3.117 3.117 0 013.11-2.814h1.6l-2.013 13.583zm.413-14.833a4.357 4.357 0 00-3.59 1.875 3.667 3.667 0 00-3.207-1.875 3.68 3.68 0 00-3.058 1.661 3.673 3.673 0 00-.377-.488 3.697 3.697 0 00-2.696-1.173h-.534c-1.272 0-2.396.65-3.058 1.633a3.682 3.682 0 00-3.057-1.633h-.534c-1.019 0-2 .427-2.695 1.173a3.674 3.674 0 00-.377.488 3.679 3.679 0 00-3.059-1.661 3.686 3.686 0 00-3.206 1.876 4.357 4.357 0 00-3.59-1.875H1.875V20c0-2.661 7.444-5.625 18.125-5.625 10.681 0 18.125 2.964 18.125 5.625v.625h-1.606v-.001zM22.246 9.637c-1 .445-2.246.999-2.246 2.238h1.25c0-.427.764-.766 1.504-1.094 1-.445 2.246-.998 2.246-2.238s-1.245-1.793-2.246-2.238c-.739-.329-1.504-.668-1.504-1.096 0-.428.764-.768 1.504-1.096 1-.444 2.246-.999 2.246-2.238h-1.25c0 .428-.765.768-1.504 1.096C21.245 3.416 20 3.97 20 5.21s1.246 1.794 2.246 2.238c.74.329 1.504.669 1.504 1.096 0 .427-.764.766-1.504 1.095zm-6.25 0c-1 .445-2.246.999-2.246 2.238H15c0-.427.764-.766 1.504-1.094 1-.445 2.246-.998 2.246-2.238s-1.245-1.793-2.246-2.238C15.765 5.976 15 5.637 15 5.209c0-.428.764-.768 1.504-1.096 1-.444 2.246-.999 2.246-2.238H17.5c0 .428-.765.768-1.504 1.096-1.001.445-2.246.998-2.246 2.238s1.246 1.794 2.246 2.238c.74.329 1.504.669 1.504 1.096 0 .427-.764.766-1.504 1.095z" fill="#000"/><path d="M13.09 16.355c-.51.34-1.104.52-1.717.52H8.75v1.25h2.623c.86 0 1.694-.253 2.41-.73a3.092 3.092 0 011.719-.52H17.5v-1.25h-1.998c-.86 0-1.694.252-2.411.73zm18.194 1.875a4.338 4.338 0 00-2.41-.73h-1.999v1.25h1.998c.613 0 1.207.18 1.718.52.717.477 1.55.73 2.41.73h2.624v-1.25h-2.623a3.09 3.09 0 01-1.718-.52z" fill="#000"/></svg>