<svg width="36" height="36" fill="none" xmlns="http://www.w3.org/2000/svg"><path d="M5.61 1.178H1.252c-.602 0-1.089.487-1.089 1.089v26.59c0 .884.662 1.677 1.546 1.723.942.05 1.721-.7 1.721-1.63V18.694c0-.884.662-1.677 1.546-1.723.942-.05 1.721.7 1.721 1.631v2.178c0 1.203.976 2.178 2.179 2.178h1.089v3.175c0 .884.662 1.677 1.546 1.723.942.05 1.72-.7 1.72-1.63V8.8H6.7a1.09 1.09 0 01-1.09-1.089V1.178z" fill="#96C12A"/><path d="M33.097 4.645h-4.065V1.742C29.032.782 28.251 0 27.29 0H7.548a1.74 1.74 0 00-1.635 1.161H1.742C.782 1.161 0 1.943 0 2.903v28.452a2.325 2.325 0 002.323 2.322 2.325 2.325 0 002.322-2.322V20.323a1.162 1.162 0 012.323 0v2.322a2.906 2.906 0 002.903 2.903h.58v2.904a2.325 2.325 0 002.323 2.322 2.325 2.325 0 002.323-2.322v-18H27.29c.96 0 1.742-.782 1.742-1.742V5.806h4.065c.96 0 1.742.782 1.742 1.742v4.469c0 .834-.594 1.553-1.413 1.71l-11.33 2.18a2.907 2.907 0 00-2.354 2.85v.985h-2.323v13.355c0 1.6 1.303 2.903 2.904 2.903 1.6 0 2.903-1.302 2.903-2.903V19.742h-2.323v-.985c0-.834.594-1.553 1.413-1.71l11.33-2.179A2.907 2.907 0 0036 12.017V7.548c0-1.6-1.302-2.903-2.903-2.903zM13.935 28.452a1.162 1.162 0 01-2.322 0v-6.388h-1.161v2.323H9.87c-.96 0-1.742-.782-1.742-1.742v-2.322A2.325 2.325 0 005.806 18a2.325 2.325 0 00-2.322 2.323v11.032a1.162 1.162 0 01-2.323 0V2.903c0-.32.26-.58.58-.58h4.065V8.71c0 .96.782 1.742 1.742 1.742h6.387v18zM27.871 8.71c0 .32-.26.58-.58.58H7.547a.58.58 0 01-.58-.58V1.742c0-.32.26-.58.58-.58H27.29c.32 0 .581.26.581.58V8.71zm-5.806 15.677h-1.162v1.161h1.162v3.484h-1.162v1.162h1.162v2.903c0 .96-.782 1.742-1.742 1.742s-1.742-.782-1.742-1.742V27.87h1.16v-1.16h-1.16v-3.484h1.16v-1.162h-1.16v-1.16h3.483v3.483z" fill="#000"/><path d="M2.887 7.168h-1.09v8.168h1.09V7.168zm16.336 22.87h-1.09v1.09h1.09v-1.09zM2.887 4.99h-1.09v1.089h1.09v-1.09z" fill="#000"/></svg>