<svg width="44" height="44" fill="none" xmlns="http://www.w3.org/2000/svg"><path d="M22 40.563c-9.477 0-17.188-7.71-17.188-17.188 0-9.477 7.71-17.188 17.188-17.188 9.477 0 17.188 7.71 17.188 17.188 0 9.477-7.71 17.188-17.188 17.188zm0-30.938c-7.582 0-13.75 6.168-13.75 13.75s6.168 13.75 13.75 13.75 13.75-6.168 13.75-13.75S29.582 9.625 22 9.625z" fill="#96C12A"/><path d="M22.688 20.723v-6.285h-1.375v6.285a2.748 2.748 0 00-2.063 2.652c0 .509.148.979.39 1.388l-2.94 2.938.973.973 2.938-2.939c.409.242.88.39 1.388.39a2.753 2.753 0 002.75-2.75c0-1.277-.88-2.345-2.063-2.652zM22 24.75a1.376 1.376 0 01-1.375-1.375c0-.758.617-1.375 1.375-1.375s1.375.617 1.375 1.375S22.758 24.75 22 24.75zm-8.937 17.188A3.441 3.441 0 019.624 38.5c0-.876.332-1.695.918-2.327a17.503 17.503 0 01-.984-.958A4.768 4.768 0 008.25 38.5a4.818 4.818 0 004.813 4.813 4.778 4.778 0 004.567-3.316 17.175 17.175 0 01-1.316-.405 3.41 3.41 0 01-3.252 2.346zm20.393-5.765c.587.632.919 1.451.919 2.327a3.441 3.441 0 01-3.438 3.438 3.41 3.41 0 01-3.251-2.346c-.431.152-.87.288-1.316.405a4.778 4.778 0 004.567 3.316A4.818 4.818 0 0035.75 38.5a4.768 4.768 0 00-1.309-3.285c-.316.332-.643.652-.985.958zm5.49-31.119a5.483 5.483 0 00-3.903-1.617 5.485 5.485 0 00-3.904 1.618l-.486.486 2.042 2.041-1.368 1.368c.39.254.771.522 1.14.806l1.2-1.2 1.778 1.777-1.1 1.1c.318.33.627.67.92 1.024l1.152-1.152 2.042 2.042.486-.486a5.482 5.482 0 001.617-3.904c0-1.474-.574-2.86-1.616-3.903zm-.526 6.309L32.636 5.58a4.112 4.112 0 012.406-.768c1.106 0 2.148.432 2.93 1.215a4.118 4.118 0 011.215 2.93c0 .876-.27 1.709-.769 2.406zm-20.545-6.55h1.375V6.41c.452-.073.912-.126 1.375-.163V4.813h2.75v1.434c.463.037.923.09 1.375.163V4.812h1.375c.758 0 1.375-.616 1.375-1.375a2.753 2.753 0 00-2.75-2.75h-5.5a2.753 2.753 0 00-2.75 2.75c0 .759.617 1.376 1.375 1.376zm1.375-2.75h5.5c.758 0 1.375.616 1.376 1.374h-8.251c0-.758.617-1.374 1.375-1.374zM8.735 12.457c.293-.354.602-.694.92-1.023l-1.1-1.1 1.778-1.779 1.2 1.2c.368-.283.748-.551 1.14-.805l-1.368-1.368 2.042-2.041-.486-.487a5.484 5.484 0 00-3.904-1.617c-1.474 0-2.86.575-3.903 1.618a5.486 5.486 0 00-1.617 3.902c0 1.475.575 2.861 1.618 3.904l.486.486 2.041-2.042 1.153 1.152zm-3.922-3.5c0-1.106.43-2.148 1.214-2.93a4.118 4.118 0 012.93-1.215c.875 0 1.708.27 2.406.768L5.58 11.363a4.112 4.112 0 01-.768-2.406z" fill="#000"/><path d="M22 8.938c-7.961 0-14.438 6.476-14.438 14.437 0 7.961 6.477 14.438 14.438 14.438s14.438-6.477 14.438-14.438S29.96 8.937 22 8.937zm13.027 15.124a12.991 12.991 0 01-3.332 8.036l-1.917-1.917-.972.972 1.917 1.917a12.988 12.988 0 01-8.035 3.332v-2.715h-1.375v2.715a12.991 12.991 0 01-8.036-3.332l1.917-1.917-.972-.972-1.917 1.917a12.988 12.988 0 01-3.332-8.035h2.714v-1.375H8.973a12.992 12.992 0 013.332-8.036l1.917 1.917.972-.972-1.917-1.917a12.988 12.988 0 018.036-3.332v2.714h1.375v-2.714a12.991 12.991 0 018.035 3.332l-1.917 1.917.972.972 1.917-1.917a12.988 12.988 0 013.332 8.036h-2.715v1.375h2.715z" fill="#000"/></svg>