<svg width="41" height="41" fill="none" xmlns="http://www.w3.org/2000/svg"><g clip-path="url(#clip0)"><path d="M21.568 37.796c-.176 0-.353-.01-.53-.03-1.952-.23-3.588-1.802-3.889-3.739a4.474 4.474 0 011.867-4.39V5.766a2.565 2.565 0 012.562-2.563 2.565 2.565 0 012.563 2.563v23.87a4.499 4.499 0 011.922 3.677c0 1.279-.549 2.5-1.506 3.351a4.5 4.5 0 01-2.99 1.132z" fill="#96C12A"/><path d="M35.672 4.484a3.848 3.848 0 00-3.844 3.844 3.848 3.848 0 003.844 3.844 3.848 3.848 0 003.844-3.844 3.848 3.848 0 00-3.844-3.844zm0 6.407a2.565 2.565 0 01-2.563-2.563 2.565 2.565 0 012.563-2.562 2.565 2.565 0 012.562 2.562 2.565 2.565 0 01-2.562 2.563zM35.031.64h1.282v2.563H35.03V.641zm-5.252 2.706l.905-.906 1.812 1.812-.906.906-1.811-1.812zm-1.795 4.342h2.563v1.28h-2.563v-1.28zm1.795 5.625L31.59 11.5l.906.906-1.812 1.813-.906-.906zm5.252.14h1.282v2.563H35.03v-2.563zm3.805-1.048l.906-.906 1.812 1.812-.906.906-1.812-1.812z" fill="#000"/><path d="M37.797 7.688h2.562v1.28h-2.562v-1.28zm1.042-3.433l1.812-1.812.905.906-1.811 1.812-.906-.906zM19.016 9.61h5.125v1.28h-5.125V9.61zM7.756 8.262h.595V12h.77V7.1h-.518c-.119.329-.252.616-.847.616v.546zm3.006-.035c0-.35.154-.483.4-.483.244 0 .398.133.398.483v2.646c0 .35-.154.483-.399.483-.245 0-.399-.133-.399-.483V8.227zm-.77 2.597c0 .784.413 1.232 1.17 1.232.755 0 1.168-.448 1.168-1.232V8.276c0-.784-.413-1.232-1.169-1.232s-1.169.448-1.169 1.232v2.548zm3.546-2.597c0-.35.154-.483.399-.483.245 0 .399.133.399.483v2.646c0 .35-.154.483-.4.483-.244 0-.398-.133-.398-.483V8.227zm-.77 2.597c0 .784.413 1.232 1.169 1.232s1.169-.448 1.169-1.232V8.276c0-.784-.413-1.232-1.17-1.232-.755 0-1.168.448-1.168 1.232v2.548zm2.404-5.058a.64.64 0 100-1.282.64.64 0 000 1.282zm-3.844 12.812h-1.281c0 .575-.2.824-.5 1.2-.348.434-.781.976-.781 2 0 1.026.433 1.566.78 2.001.302.377.5.626.5 1.202 0 .577-.198.825-.5 1.202-.347.435-.78.977-.78 2.003 0 1.025.433 1.567.78 2.002.302.377.5.626.5 1.203h1.282c0-1.027-.433-1.568-.78-2.003-.302-.377-.501-.626-.501-1.202 0-.577.2-.826.5-1.203.348-.435.781-.976.781-2.002 0-1.026-.433-1.567-.78-2.002-.302-.377-.501-.625-.501-1.201 0-.575.2-.824.5-1.2.348-.434.781-.975.781-2zm-3.203 0H6.844c0 .575-.2.824-.5 1.2-.348.434-.782.976-.782 2 0 1.026.434 1.566.781 2.001.302.377.5.626.5 1.202 0 .577-.198.825-.5 1.202-.347.435-.78.977-.78 2.003 0 1.025.433 1.567.78 2.002.302.377.5.626.5 1.203h1.282c0-1.027-.433-1.568-.78-2.003-.302-.377-.501-.626-.501-1.202 0-.577.199-.826.5-1.203.348-.435.781-.976.781-2.002 0-1.026-.433-1.567-.78-2.002-.302-.377-.501-.625-.501-1.201 0-.575.199-.824.5-1.2.348-.434.781-.975.781-2z" fill="#000"/><path d="M26.703 5.766c0-2.826-2.3-5.125-5.125-5.125-1.685 0-3.18.822-4.114 2.082A8.22 8.22 0 0011.969.64C7.377.64 3.64 4.377 3.64 8.969c0 4.592 3.736 8.328 8.328 8.328 1.6 0 3.15-.468 4.484-1.326v12.511c-1.988 2.107-2.487 5.14-1.264 7.806.947 2.062 2.92 3.581 5.151 3.964.409.07.817.105 1.223.105a7.048 7.048 0 007.062-7.044 7.1 7.1 0 00-1.922-4.83V5.766zM11.97 16.016a7.055 7.055 0 01-7.047-7.047 7.055 7.055 0 017.047-7.047c1.829 0 3.532.696 4.849 1.956a5.096 5.096 0 00-.365 1.888v8.618a7.02 7.02 0 01-4.484 1.632zm15.375 17.297a5.76 5.76 0 01-2.056 4.41 5.802 5.802 0 01-4.731 1.267 5.763 5.763 0 01-4.203-3.235c-1.035-2.254-.568-4.826 1.188-6.554l.192-.189V5.766a3.848 3.848 0 013.844-3.844 3.848 3.848 0 013.844 3.844v23.246l.191.188a5.807 5.807 0 011.73 4.113z" fill="#000"/><path d="M13.75 29.388c-.3-.377-.5-.626-.5-1.202 0-.577.2-.826.5-1.203.348-.435.781-.976.781-2.002 0-1.026-.433-1.567-.78-2.002-.302-.377-.501-.625-.501-1.201 0-.575.2-.824.5-1.2.348-.434.781-.975.781-2H13.25c0 .575-.2.824-.5 1.2-.348.434-.781.976-.781 2 0 1.026.433 1.566.78 2.001.302.377.501.626.501 1.202 0 .577-.2.825-.5 1.202-.348.435-.781.977-.781 2.003 0 1.025.433 1.567.78 2.002.302.377.501.626.501 1.203h1.281c0-1.027-.433-1.568-.78-2.003z" fill="#000"/></g><defs><clipPath id="clip0"><path fill="#fff" d="M0 0h41v41H0z"/></clipPath></defs></svg>