<svg width="43" height="43" fill="none" xmlns="http://www.w3.org/2000/svg"><path d="M21.5 36.987l-10.21-6.962a7.385 7.385 0 01-3.227-6.106V11.233l.503-.13a10.083 10.083 0 007.24-7.24l.13-.504h11.128l.13.504a10.084 10.084 0 007.24 7.24l.504.13V23.92a7.385 7.385 0 01-3.228 6.106L21.5 36.987z" fill="#96C12A"/><path d="M21.5 8.734c-5.927 0-10.75 4.823-10.75 10.75 0 5.928 4.823 10.75 10.75 10.75s10.75-4.822 10.75-10.75c0-5.927-4.823-10.75-10.75-10.75zm9.372 11.422a9.352 9.352 0 01-2.272 5.479l-.924-.925-.95.95.924.925a9.353 9.353 0 01-5.478 2.271v-1.31h-1.344v1.31a9.352 9.352 0 01-5.478-2.271l.924-.925-.95-.95-.924.925a9.353 9.353 0 01-2.272-5.479h1.31v-1.343h-1.31a9.352 9.352 0 012.272-5.479l.924.925.95-.95-.924-.925a9.353 9.353 0 015.478-2.272v1.31h1.344v-1.31a9.352 9.352 0 015.478 2.272l-.924.925.95.95.924-.925a9.354 9.354 0 012.272 5.479h-1.31v1.343h1.31z" fill="#000"/><path d="M37.625 23.92V8.733h-.672c-4.075 0-7.39-3.315-7.39-7.39V.672H13.438v.672c0 4.075-3.316 7.39-7.391 7.39h-.672V23.92a10.07 10.07 0 004.4 8.327l5.286 3.604c-4.27.332-9.686 1.141-9.686 3.119 0 3.265 14.474 3.36 16.125 3.36 1.65 0 16.125-.095 16.125-3.36 0-1.975-5.388-2.787-9.686-3.12l5.285-3.603a10.07 10.07 0 004.401-8.327zm-1.377 15.05c-.657.756-5.893 2.014-14.748 2.014S7.409 39.726 6.752 38.97c.453-.5 3.326-1.517 10.111-1.89l3.032 2.066c.474.324 1.03.496 1.605.496a2.84 2.84 0 001.606-.495l3.03-2.067c6.782.373 9.659 1.388 10.112 1.89zm-13.9-.935a1.528 1.528 0 01-1.696 0l-10.119-6.899a8.728 8.728 0 01-3.814-7.217V10.053c4.282-.328 7.71-3.756 8.037-8.037h13.488c.328 4.281 3.755 7.71 8.037 8.037v13.866a8.728 8.728 0 01-3.814 7.217l-10.118 6.899z" fill="#000"/><path d="M21.34 18.166c.612 0 1.113.186 1.503.558.396.372.594.837.594 1.395 0 .57-.195 1.044-.585 1.422-.39.378-.876.567-1.458.567-.576 0-1.056-.18-1.44-.54-.378-.36-.576-.819-.594-1.377h.972c.012.294.117.534.315.72.198.186.447.279.747.279.306 0 .558-.102.756-.306.204-.204.306-.459.306-.765a.99.99 0 00-.045-.297.92.92 0 00-.108-.261.929.929 0 00-.18-.225 1.06 1.06 0 00-.504-.279 1.297 1.297 0 00-.315-.036H19.72l-.117-.135.324-2.871h3.096v.882H20.71l-.135 1.269h.765z" fill="#000"/></svg>